<?xml version="1.0" encoding="utf-8"?>
<!-- Generator: Adobe Illustrator 19.1.0, SVG Export Plug-In . SVG Version: 6.00 Build 0)  -->
<svg version="1.1" id="Layer_1" xmlns="http://www.w3.org/2000/svg" xmlns:xlink="http://www.w3.org/1999/xlink" x="0px" y="0px"
	 viewBox="0 0 455 575" style="enable-background:new 0 0 455 575;" xml:space="preserve">
<style type="text/css">
	.st0{fill:#231F20;stroke:#FFFFFF;stroke-width:3.9995;stroke-miterlimit:10;}
	.st1{fill:#231F20;}
	.st2{fill:#FFFFFF;}
</style>
<g>
	<g>
		<polygon class="st2" points="408.1,146.2 387.4,157.2 358.3,176.3 358.3,448.8 386.5,455.3 399.7,448 408.1,447.9 		"/>
		<polygon class="st2" points="130.6,120.5 100.8,136.4 100.8,164.9 146.4,137.9 		"/>
		<polygon class="st2" points="121.4,168.5 169.8,140.5 150.1,140.5 102.8,168.5 		"/>
		<polygon class="st2" points="138.5,178.6 189.3,150.3 177.2,140.9 127.2,169.9 		"/>
		<polygon class="st2" points="323.3,461.8 329.3,484.7 346,447.7 		"/>
		<polygon class="st2" points="267.8,469.6 269,470.3 281.3,482.2 285.1,470.9 313.6,441.3 		"/>
		<polygon class="st2" points="208.4,464.1 213.4,469.4 229.5,451.1 		"/>
		<polygon class="st2" points="174.4,168.5 203.3,150.7 203.6,151 219.5,140.5 211.4,140.5 193,153.1 192.9,153 165,168.5 		"/>
		<polygon class="st2" points="358.4,469.8 345.6,498.1 383.8,475.6 		"/>
		<polygon class="st2" points="272.3,193.6 321.7,162.8 303.4,88.4 292.7,139.3 263.1,157.3 		"/>
		<polygon class="st2" points="333.2,187.9 383.2,155.1 354.2,124.4 352,135 327.5,163.6 322.7,167 319.1,169.2 		"/>
		<polygon class="st2" points="237,168.5 284.7,140.5 275.6,140.5 227.2,168.5 		"/>
		<polygon class="st2" points="221.5,167.1 271.6,138.1 244.2,113.4 227.4,140.5 206.9,153.9 		"/>
		<polygon class="st2" points="405.1,468.3 356.9,496.3 374.6,496.1 422.9,468.1 		"/>
		<polygon class="st2" points="80.4,468.2 80.4,126.8 30.5,155.4 30.5,497.1 		"/>
		<polygon class="st2" points="276.9,115.3 299.9,5.4 250,35.7 240.2,82.3 		"/>
		<polygon class="st2" points="193.7,127.8 205.1,120 216,120 238.1,84.4 188.2,115 184.7,120.8 		"/>
		<polygon class="st2" points="287.2,516.4 256.5,486.6 235.7,475 214,499.7 196.4,509.8 205.8,515.1 237.4,545.2 		"/>
		<polygon class="st2" points="306.5,478.2 303,481.8 290.4,519.5 263.7,534.8 272.8,569.6 322.8,540.6 		"/>
		<polygon class="st2" points="341.1,86.8 326.2,95.8 333.3,124.5 		"/>
		<polygon class="st2" points="185.2,469.3 135.2,498.4 160.9,525.5 211,496.5 		"/>
		<path class="st2" d="M404,464.3l20.4-0.3V120.8l-34.9,15.5l-45.2-45l-7.5,36l-5.5,6.3L302.1,14.8l-22.7,108.3l-38.8-35l-22.3,36
			h-11.9l-12.8,8.8l-11.3-8.8h-26.3l-21.7-24l-49.6,26.4v339.9l53.2-18l26.1,20.1l22.6-4l27.5,29l20.9-23.8l24.4,13.7l29.5,28.5
			l10.8-32.4l9.2-9.5l16.6,63.4l30.9-68.4l32.8,7.6L404,464.3z M349.1,450.9l-20.8,46l-13.4-51l-26.2,27.2l-5.5,16.6l-16.8-16.3
			l-34.2-19.2l-18.6,21.1l-22.8-24.1l-23.7,4.2l-27-20.8l-43.2,14.6V133.9l34.7-18.5l19,20.9H178l15.1,11.7l17.1-11.7h15l18.1-29.3
			l32.5,29.3h13.3L303,70l22,89.5l23.1-26.4l3.6-17.2l35,37l25.4-13.5v312.5l-11.4,0.1l-13.7,7.6L349.1,450.9z"/>
		<polygon class="st2" points="75.6,484.2 118.6,459.3 83.3,471.2 40.3,496.1 		"/>
		<polygon class="st2" points="159.6,470.5 137.1,453.2 87.2,482.2 109.6,499.5 		"/>
		<polygon class="st2" points="174.6,470.8 164,472.7 117.2,499.8 127.9,497.9 		"/>
	</g>
</g>
</svg>
