<?xml version="1.0" encoding="utf-8"?>
<!-- Generator: Adobe Illustrator 19.0.0, SVG Export Plug-In . SVG Version: 6.00 Build 0)  -->
<svg version="1.1" id="Layer_1" xmlns="http://www.w3.org/2000/svg" xmlns:xlink="http://www.w3.org/1999/xlink" x="0px" y="0px"
	 viewBox="-132 73 455 575" style="enable-background:new -132 73 455 575;" xml:space="preserve">
<style type="text/css">
	.st0{fill:#FFFFFF;}
</style>
<g>
	<g>
		<polygon class="st0" points="276.1,219.2 255.4,230.2 226.3,249.3 226.3,521.8 254.5,528.3 267.7,521 276.1,520.9 		"/>
		<polygon class="st0" points="-1.4,193.5 -31.2,209.4 -31.2,237.9 14.4,210.9 		"/>
		<polygon class="st0" points="-10.6,241.5 37.8,213.5 18.1,213.5 -29.2,241.5 		"/>
		<polygon class="st0" points="6.5,251.6 57.3,223.3 45.2,213.9 -4.8,242.9 		"/>
		<polygon class="st0" points="191.3,534.8 197.3,557.7 214,520.7 		"/>
		<polygon class="st0" points="135.8,542.6 137,543.3 149.3,555.2 153.1,543.9 181.6,514.3 		"/>
		<polygon class="st0" points="76.4,537.1 81.4,542.4 97.5,524.1 		"/>
		<polygon class="st0" points="42.4,241.5 71.3,223.7 71.6,224 87.5,213.5 79.4,213.5 61,226.1 60.9,226 33,241.5 		"/>
		<polygon class="st0" points="226.4,542.8 213.6,571.1 251.8,548.6 		"/>
		<polygon class="st0" points="140.3,266.6 189.7,235.8 171.4,161.4 160.7,212.3 131.1,230.3 		"/>
		<polygon class="st0" points="201.2,260.9 251.2,228.1 222.2,197.4 220,208 195.5,236.6 190.7,240 187.1,242.2 		"/>
		<polygon class="st0" points="105,241.5 152.7,213.5 143.6,213.5 95.2,241.5 		"/>
		<polygon class="st0" points="89.5,240.1 139.6,211.1 112.2,186.4 95.4,213.5 74.9,226.9 		"/>
		<polygon class="st0" points="273.1,541.3 224.9,569.3 242.6,569.1 290.9,541.1 		"/>
		<polygon class="st0" points="-51.6,541.2 -51.6,199.8 -101.5,228.4 -101.5,570.1 		"/>
		<polygon class="st0" points="144.9,188.3 167.9,78.4 118,108.7 108.2,155.3 		"/>
		<polygon class="st0" points="61.7,200.8 73.1,193 84,193 106.1,157.4 56.2,188 52.7,193.8 		"/>
		<polygon class="st0" points="155.2,589.4 124.5,559.6 103.7,548 82,572.7 64.4,582.8 73.8,588.1 105.4,618.2 		"/>
		<polygon class="st0" points="174.5,551.2 171,554.8 158.4,592.5 131.7,607.8 140.8,642.6 190.8,613.6 		"/>
		<polygon class="st0" points="209.1,159.8 194.2,168.8 201.3,197.5 		"/>
		<polygon class="st0" points="53.2,542.3 3.2,571.4 28.9,598.5 79,569.5 		"/>
		<path class="st0" d="M272,537.3l20.4-0.3V193.8l-34.9,15.5l-45.2-45l-7.5,36l-5.5,6.3L170.1,87.8l-22.7,108.3l-38.8-35l-22.3,36
			H74.4l-12.8,8.8l-11.3-8.8H24l-21.7-24l-49.6,26.4v339.9l53.2-18L32,541.5l22.6-4l27.5,29l20.9-23.8l24.4,13.7l29.5,28.5
			l10.8-32.4l9.2-9.5l16.6,63.4l30.9-68.4l32.8,7.6L272,537.3z M217.1,523.9l-20.8,46l-13.4-51l-26.2,27.2l-5.5,16.6l-16.8-16.3
			l-34.2-19.2l-18.6,21.1l-22.8-24.1l-23.7,4.2l-27-20.8l-43.2,14.6V206.9l34.7-18.5l19,20.9H46L61.1,221l17.1-11.7h15l18.1-29.3
			l32.5,29.3h13.3L171,143l22,89.5l23.1-26.4l3.6-17.2l35,37l25.4-13.5v312.5l-11.4,0.1l-13.7,7.6L217.1,523.9z"/>
		<polygon class="st0" points="-56.4,557.2 -13.4,532.3 -48.7,544.2 -91.7,569.1 		"/>
		<polygon class="st0" points="27.6,543.5 5.1,526.2 -44.8,555.2 -22.4,572.5 		"/>
		<polygon class="st0" points="42.6,543.8 32,545.7 -14.8,572.8 -4.1,570.9 		"/>
	</g>
	<g>
		<g>
			<polygon class="st0" points="61.6,330.2 70.8,330.2 70.8,324.7 46.1,324.7 46.1,330.2 55.3,330.2 55.3,338.5 61.6,338.5 			"/>
			<polygon class="st0" points="118,324.7 111.8,324.7 111.8,335.7 99.4,335.7 99.4,324.7 93.2,324.7 93.2,338.5 118,338.5 			"/>
			<polygon class="st0" points="150.6,335.8 140.8,335.8 140.8,330.2 152.1,330.2 152.1,324.7 134.5,324.7 134.5,338.5 150.6,338.5 
							"/>
			<rect x="57.6" y="338.5" class="st0" width="6.3" height="14.7"/>
			<polygon class="st0" points="97.2,353.2 97.2,341.2 109.5,341.2 109.5,353.2 115.8,353.2 115.8,338.5 90.9,338.5 90.9,353.2 			
				"/>
			<polygon class="st0" points="154.8,353.2 154.8,347.7 143,347.7 143,341 152.8,341 152.8,338.5 136.8,338.5 136.8,353.2 			"/>
			<rect x="100.9" y="386.3" class="st0" width="6.3" height="14.3"/>
			<path class="st0" d="M145.6,390.6h5v4.3c-1,0.4-2.2,0.6-3.5,0.6c-1.9,0-3.6-0.4-5-1.3c-1.5-0.8-2.5-1.9-3.3-3.3
				c-0.7-1.4-1.1-2.9-1.1-4.6v-0.1h-6.3v0.1c0,2.1,0.4,4,1.2,5.8c0.8,1.8,1.8,3.3,3.2,4.6c1.4,1.3,3,2.3,4.9,3s4,1.1,6.3,1.1
				c1.7,0,3.5-0.2,5.2-0.6s3.2-1,4.5-1.7v-13.2h-11v5.3H145.6z"/>
			<rect x="98.7" y="372" class="st0" width="6.3" height="14.3"/>
			<path class="st0" d="M142.5,379.8c1.7-1.8,4-2.6,6.9-2.6c1.5,0,3,0.3,4.5,0.8s2.9,1.2,4.1,2.1v-6.3c-2.6-1.4-5.5-2.2-8.7-2.2
				c-2.2,0-4.3,0.4-6.3,1.1c-1.9,0.8-3.6,1.8-5,3.1c-1.4,1.3-2.4,2.9-3.2,4.7c-0.8,1.8-1.1,3.7-1.2,5.7h6.3
				C139.9,383.7,140.8,381.6,142.5,379.8z"/>
			<path class="st0" d="M69.4,433.6c0,2.5-0.8,4.7-2.5,6.4c-1.6,1.7-3.7,2.6-6.2,2.6s-4.5-0.9-6.2-2.6s-2.5-3.9-2.5-6.4
				c0-0.3,0-0.5,0-0.8h-6.2c0,0.3,0,0.5,0,0.8c0,2.7,0.6,5.2,1.9,7.5c1.3,2.2,3.1,4,5.4,5.3c2.3,1.3,4.8,1.9,7.6,1.9
				s5.3-0.6,7.6-1.9s4.1-3.1,5.4-5.3c1.3-2.2,1.9-4.7,1.9-7.5c0-0.3,0-0.5,0-0.8h-6.3C69.3,433.1,69.4,433.3,69.4,433.6z"/>
			<path class="st0" d="M110.3,438.1L110.3,438.1c-1.5-2-2.8-3.7-4-5.3h-7.1c0.9,1.3,1.8,2.5,2.6,3.5l8.5,11.5h5.9v-15h-6
				C110.3,434.3,110.3,436.1,110.3,438.1z"/>
			<path class="st0" d="M90.4,447.9h6v-10.6c0-0.7,0-2.1,0-4.4h-6V447.9z"/>
			<polygon class="st0" points="152.8,435.6 152.8,432.8 136.8,432.8 136.8,447.9 154.8,447.9 154.8,442.4 143,442.4 143,435.6 			
				"/>
			<path class="st0" d="M66.1,420.8c-2.3-1.3-4.8-1.9-7.6-1.9s-5.3,0.6-7.6,1.9s-4.1,3.1-5.4,5.3c-1.2,2-1.8,4.3-1.9,6.7h6.2
				c0.2-2.2,1-4.1,2.5-5.6c1.7-1.7,3.7-2.6,6.2-2.6s4.5,0.9,6.2,2.6c1.5,1.6,2.3,3.4,2.4,5.7h6.3c-0.1-2.4-0.7-4.7-1.9-6.7
				C70.1,423.9,68.3,422.1,66.1,420.8z"/>
			<path class="st0" d="M112.5,419.3v10.6c0,0.8,0,1.8,0,2.9h6v-13.5H112.5z"/>
			<path class="st0" d="M107.1,430.8l-8.6-11.5h-5.9v13.5h6c0-1.1,0-2.4-0.1-3.8h0.1c1,1.4,1.9,2.7,2.8,3.9h7.1
				C108.1,432.1,107.6,431.4,107.1,430.8z"/>
			<polygon class="st0" points="150.6,430.4 140.8,430.4 140.8,424.8 152.1,424.8 152.1,419.3 134.5,419.3 134.5,432.8 150.6,432.8 
							"/>
		</g>
		<g>
			<path class="st0" d="M51.4,385v15.6h8.5c4.3,0,7.5-0.8,9.7-2.3s3.2-3.6,3.2-6.4c0-1.7-0.5-3.2-1.4-4.3c-0.9-1.2-2.3-2-4.1-2.6
				l0,0L51.4,385L51.4,385z M66,393.7c-0.4,0.5-1,0.9-2,1.1s-2.3,0.4-4,0.4h-2.3v-7.1h3.7c3.4,0,5.1,1.2,5.1,3.5
				C66.5,392.5,66.3,393.2,66,393.7z"/>
			<path class="st0" d="M69.1,379.2c0-2.4-1-4.2-2.9-5.4c-1.9-1.2-5-1.8-9-1.8h-8.3v13h16C67.7,383.9,69.1,382,69.1,379.2z
				 M61.6,383c-0.8,0.5-1.8,0.8-3.2,0.8h-3.3v-6.5H57c2.1,0,3.6,0.3,4.5,0.8c0.8,0.5,1.3,1.3,1.3,2.5
				C62.8,381.7,62.4,382.5,61.6,383z"/>
		</g>
	</g>
</g>
</svg>
